<svg aria-hidden="true" style="position: absolute; width: 0; height: 0;" version="1.1"
    xmlns="http://www.w3.org/2000/svg" xmlns:xlink="http://www.w3.org/1999/xlink">
    <defs>
    
 <symbol id="icon-heart" viewBox="0 0 36 32">
 <path stroke-linejoin="round" stroke-linecap="round" stroke-miterlimit="4" stroke-width="3.3455"
  d="M31.040 5.251c-0.743-0.743-1.625-1.333-2.596-1.735s-2.011-0.609-3.062-0.609-2.091 0.207-3.062 0.609c-0.971 0.402-1.853 0.992-2.596 1.735l-1.542 1.542-1.542-1.542c-1.501-1.501-3.536-2.344-5.658-2.344s-4.158 0.843-5.658 2.344c-1.501 1.501-2.344 3.536-2.344 5.658s0.843 4.158 2.344 5.658l12.858 12.858 12.858-12.858c0.743-0.743 1.333-1.625 1.735-2.596s0.609-2.011 0.609-3.062-0.207-2.091-0.609-3.062c-0.402-0.971-0.992-1.853-1.735-2.596z">
</path>
</symbol>

 <symbol id="icon-close" viewBox="0 0 32 32">
   <path stroke-linejoin="round" stroke-linecap="round" stroke-miterlimit="16" stroke-width="3"
       d="M24 8l-16 16"></path>
   <path stroke-linejoin="round" stroke-linecap="round" stroke-miterlimit="16" stroke-width="3" d="M8 8l16 16">
    </path>
  </symbol>
        
<symbol id="icon-arrow-up" viewBox="0 0 32 32">
<path d="M16 1l-15 15h9v16h12v-16h9z"></path>
</symbol>

<symbol id="icon-arrow-down" viewBox="0 0 32 32">
<path d="M16 31l15-15h-9v-16h-12v16h-9z"></path>
</symbol>

<symbol id="icon-circle-up" viewBox="0 0 32 32">
<path d="M0 16c0 8.837 7.163 16 16 16s16-7.163 16-16-7.163-16-16-16-16 7.163-16 16zM29 16c0 7.18-5.82 13-13 13s-13-5.82-13-13 5.82-13 13-13 13 5.82 13 13z"></path>
<path d="M22.086 20.914l2.829-2.829-8.914-8.914-8.914 8.914 2.828 2.828 6.086-6.086z"></path>
</symbol>

<symbol id="icon-circle-down" viewBox="0 0 32 32">
<path d="M32 16c0-8.837-7.163-16-16-16s-16 7.163-16 16 7.163 16 16 16 16-7.163 16-16zM3 16c0-7.18 5.82-13 13-13s13 5.82 13 13-5.82 13-13 13-13-5.82-13-13z"></path>
<path d="M9.914 11.086l-2.829 2.829 8.914 8.914 8.914-8.914-2.828-2.828-6.086 6.086z"></path>
</symbol>

<symbol id="icon-search" viewBox="0 0 32 32">
<path d="M31.008 27.231l-7.58-6.447c-0.784-0.705-1.622-1.029-2.299-0.998 1.789-2.096 2.87-4.815 2.87-7.787 0-6.627-5.373-12-12-12s-12 5.373-12 12 5.373 12 12 12c2.972 0 5.691-1.081 7.787-2.87-0.031 0.677 0.293 1.515 0.998 2.299l6.447 7.58c1.104 1.226 2.907 1.33 4.007 0.23s0.997-2.903-0.23-4.007zM12 20c-4.418 0-8-3.582-8-8s3.582-8 8-8 8 3.582 8 8-3.582 8-8 8z"></path>
</symbol>

<symbol id="icon-plus" viewBox="0 0 32 32">
<path d="M31 12h-11v-11c0-0.552-0.448-1-1-1h-6c-0.552 0-1 0.448-1 1v11h-11c-0.552 0-1 0.448-1 1v6c0 0.552 0.448 1 1 1h11v11c0 0.552 0.448 1 1 1h6c0.552 0 1-0.448 1-1v-11h11c0.552 0 1-0.448 1-1v-6c0-0.552-0.448-1-1-1z"></path>
</symbol>

<symbol id="icon-cart" viewBox="0 0 32 32">
<path d="M12 29c0 1.657-1.343 3-3 3s-3-1.343-3-3c0-1.657 1.343-3 3-3s3 1.343 3 3z"></path>
<path d="M32 29c0 1.657-1.343 3-3 3s-3-1.343-3-3c0-1.657 1.343-3 3-3s3 1.343 3 3z"></path>
<path d="M32 16v-12h-24c0-1.105-0.895-2-2-2h-6v2h4l1.502 12.877c-0.915 0.733-1.502 1.859-1.502 3.123 0 2.209 1.791 4 4 4h24v-2h-24c-1.105 0-2-0.895-2-2 0-0.007 0-0.014 0-0.020l26-3.98z"></path>
</symbol>

<symbol id="icon-cancel-circle" viewBox="0 0 32 32">
<path d="M16 0c-8.837 0-16 7.163-16 16s7.163 16 16 16 16-7.163 16-16-7.163-16-16-16zM16 29c-7.18 0-13-5.82-13-13s5.82-13 13-13 13 5.82 13 13-5.82 13-13 13z"></path>
<path d="M21 8l-5 5-5-5-3 3 5 5-5 5 3 3 5-5 5 5 3-3-5-5 5-5z"></path>
</symbol>

<symbol id="icon-trash" viewBox="0 0 18 18">
<path d="M17 5h-4v-3c0-0.552-0.448-1-1-1h-6c-0.552 0-1 0.448-1 1v3h-4c-0.552 0-1 0.448-1 1v1h2v9c0 0.552 0.448 1 1 1h12c0.552 0 1-0.448 1-1v-9h2v-1c0-0.552-0.448-1-1-1zM7 3h4v2h-4v-2zM14 15h-10v-8h10v8z"></path>
<path d="M6.5 13h1c0.276 0 0.5-0.224 0.5-0.5v-3c0-0.276-0.224-0.5-0.5-0.5h-1c-0.276 0-0.5 0.224-0.5 0.5v3c0 0.276 0.224 0.5 0.5 0.5z"></path>
<path d="M10.5 13h1c0.276 0 0.5-0.224 0.5-0.5v-3c0-0.276-0.224-0.5-0.5-0.5h-1c-0.276 0-0.5 0.224-0.5 0.5v3c0 0.276 0.224 0.5 0.5 0.5z"></path>
</symbol>

<symbol id="icon-plus" viewBox="0 0 18 18">
<path d="M9 1c-4.418 0-8 3.582-8 8s3.582 8 8 8 8-3.582 8-8-3.582-8-8-8zM9 15c-3.309 0-6-2.691-6-6s2.691-6 6-6 6 2.691 6 6-2.691 6-6 6z"></path>
<path d="M12.010 8h-2.010v-2.010c0-0.547-0.443-0.99-0.99-0.99h-0.020c-0.547 0-0.99 0.443-0.99 0.99v2.010h-2.010c-0.547 0-0.99 0.443-0.99 0.99v0.020c0 0.547 0.443 0.99 0.99 0.99h2.010v2.010c0 0.547 0.443 0.99 0.99 0.99h0.020c0.547 0 0.99-0.443 0.99-0.99v-2.010h2.010c0.547 0 0.99-0.443 0.99-0.99v-0.020c-0-0.547-0.443-0.99-0.99-0.99z"></path>
</symbol>

<symbol id="icon-arrow-left" viewBox="0 0 32 32">
<path d="M1 16l15 15v-9h16v-12h-16v-9z"></path>
</symbol>

<symbol id="icon-circle-plus" viewBox="0 0 32 32">
<path fill="#fff" style="fill: var(--color1, #fff); stroke: var(--color2, #fe5f1e)" stroke="#fe5f1e" stroke-linejoin="miter" stroke-linecap="butt" stroke-miterlimit="4" stroke-width="2" d="M31 16c0 8.284-6.716 15-15 15s-15-6.716-15-15c0-8.284 6.716-15 15-15s15 6.716 15 15z"></path>
<path fill="#eb5a1e" style="fill: var(--color3, #eb5a1e)" d="M19.84 15.040h-2.88v-2.88c0-0.53-0.43-0.96-0.96-0.96s-0.96 0.43-0.96 0.96v2.88h-2.88c-0.53 0-0.96 0.43-0.96 0.96s0.43 0.96 0.96 0.96h2.88v2.88c0 0.53 0.43 0.96 0.96 0.96s0.96-0.43 0.96-0.96v-2.88h2.88c0.53 0 0.96-0.43 0.96-0.96s-0.43-0.96-0.96-0.96z"></path>
</symbol>

<symbol id="icon-circle-minus" viewBox="0 0 32 32">
<path fill="#fff" style="fill: var(--color1, #fff); stroke: var(--color2, #fe5f1e)" stroke="#fe5f1e" stroke-linejoin="miter" stroke-linecap="butt" stroke-miterlimit="4" stroke-width="2" d="M31 16c0 8.284-6.716 15-15 15s-15-6.716-15-15c0-8.284 6.716-15 15-15s15 6.716 15 15z"></path>
<path fill="#fe5f1e" style="fill: var(--color2, #fe5f1e)" d="M15.040 15.040h4.8c0.53 0 0.96 0.43 0.96 0.96s-0.43 0.96-0.96 0.96h-7.68c-0.53 0-0.96-0.43-0.96-0.96s0.43-0.96 0.96-0.96h2.88z"></path>
</symbol>

</defs>
</svg>